<?xml version="1.0" encoding="UTF-8" standalone="no"?>
<svg
   xmlns:dc="http://purl.org/dc/elements/1.1/"
   xmlns:cc="http://creativecommons.org/ns#"
   xmlns:rdf="http://www.w3.org/1999/02/22-rdf-syntax-ns#"
   xmlns:svg="http://www.w3.org/2000/svg"
   xmlns="http://www.w3.org/2000/svg"
   xmlns:sodipodi="http://sodipodi.sourceforge.net/DTD/sodipodi-0.dtd"
   xmlns:inkscape="http://www.inkscape.org/namespaces/inkscape"
   version="1.0"
   id="body"
   width="100mm"
   height="25mm"
   viewBox="0 0 1.0666667 0.76190476"
   preserveAspectRatio="none"
   sodipodi:version="0.32"
   inkscape:version="0.92.3 (2405546, 2018-03-11)"
   sodipodi:docname="Syn2catLOGO_official.svg"
   inkscape:output_extension="org.inkscape.output.svg.inkscape">
  <metadata
     id="metadata2725">
    <rdf:RDF>
      <cc:Work
         rdf:about="">
        <dc:format>image/svg+xml</dc:format>
        <dc:type
           rdf:resource="http://purl.org/dc/dcmitype/StillImage" />
        <dc:title>SVG drawing</dc:title>
      </cc:Work>
    </rdf:RDF>
  </metadata>
  <defs
     id="defs2723">
    <inkscape:perspective
       sodipodi:type="inkscape:persp3d"
       inkscape:vp_x="0 : 360 : 1"
       inkscape:vp_y="0 : 999.99998 : 0"
       inkscape:vp_z="719.99998 : 360 : 1"
       inkscape:persp3d-origin="359.99999 : 240 : 1"
       id="perspective2727" />
    <inkscape:perspective
       id="perspective4806"
       inkscape:persp3d-origin="0.49999998 : 0.33333333 : 1"
       inkscape:vp_z="0.99999997 : 0.5 : 1"
       inkscape:vp_y="0 : 999.99998 : 0"
       inkscape:vp_x="0 : 0.5 : 1"
       sodipodi:type="inkscape:persp3d" />
  </defs>
  <sodipodi:namedview
     inkscape:window-height="726"
     inkscape:window-width="1736"
     inkscape:pageshadow="2"
     inkscape:pageopacity="0.0"
     guidetolerance="10.0"
     gridtolerance="10.0"
     objecttolerance="10.0"
     borderopacity="1.0"
     bordercolor="#666666"
     pagecolor="#ffffff"
     id="base"
     showgrid="false"
     units="mm"
     inkscape:zoom="2.9698351"
     inkscape:cx="186.8206"
     inkscape:cy="17.54669"
     inkscape:window-x="176"
     inkscape:window-y="295"
     inkscape:current-layer="g1037"
     inkscape:window-maximized="0"
     fit-margin-top="0"
     fit-margin-left="0"
     fit-margin-right="0"
     fit-margin-bottom="0" />
  <title
     id="title2404">SVG drawing</title>
  <desc
     id="desc2406">This was produced by version 4.2 of GNU libplot, a free library for exporting 2-D vector graphics.</desc>
  <g
     id="g2643"
     transform="matrix(0.37291851,0,0,1.0695691,0.31538707,-0.13417242)">
    <g
       id="g9050"
       transform="translate(0.01513587,0.27140436)">
      <g
         id="g1037"
         transform="translate(0.08994097,-0.03088483)">
        <circle
           transform="matrix(1.0028595,0,0,1.0028595,0.06989408,0.11524974)"
           r="0.033466794"
           cy="0.18117914"
           cx="-0.72553951"
           style="display:inline;overflow:visible;visibility:visible;fill:#00aeef;fill-opacity:1;fill-rule:nonzero;stroke:#00ffff;stroke-width:0;stroke-linecap:butt;stroke-linejoin:miter;stroke-miterlimit:10.43299961;stroke-dasharray:none;stroke-dashoffset:0;stroke-opacity:1;marker:none;enable-background:accumulate"
           id="path4819" />
        <circle
           transform="matrix(1.0028595,0,0,1.0028595,0.68660055,0.03044764)"
           r="0.033466794"
           cy="0.18117914"
           cx="-0.72553951"
           style="display:inline;overflow:visible;visibility:visible;fill:#00aeef;fill-opacity:1;fill-rule:nonzero;stroke:#00ffff;stroke-width:0;stroke-linecap:butt;stroke-linejoin:miter;stroke-miterlimit:10.43299961;stroke-dasharray:none;stroke-dashoffset:0;stroke-opacity:1;marker:none;enable-background:accumulate"
           id="path4822" />
        <circle
           transform="matrix(1.0028595,0,0,1.0028595,0.54783524,-0.13914436)"
           r="0.033466794"
           cy="0.18117914"
           cx="-0.72553951"
           style="display:inline;overflow:visible;visibility:visible;fill:#00aeef;fill-opacity:1;fill-rule:nonzero;stroke:#00ffff;stroke-width:0;stroke-linecap:butt;stroke-linejoin:miter;stroke-miterlimit:10.43299961;stroke-dasharray:none;stroke-dashoffset:0;stroke-opacity:1;marker:none;enable-background:accumulate"
           id="path4824" />
        <circle
           transform="matrix(1.0028595,0,0,1.0028595,1.079776,-0.02290056)"
           r="0.033466794"
           cy="0.18117914"
           cx="-0.72553951"
           style="display:inline;overflow:visible;visibility:visible;fill:#00aeef;fill-opacity:1;fill-rule:nonzero;stroke:#00ffff;stroke-width:0;stroke-linecap:butt;stroke-linejoin:miter;stroke-miterlimit:10.43299961;stroke-dasharray:none;stroke-dashoffset:0;stroke-opacity:1;marker:none;enable-background:accumulate"
           id="path2471" />
        <circle
           r="0.033562493"
           cy="0.56835133"
           cx="0.84523493"
           style="display:inline;overflow:visible;visibility:visible;fill:#00aeef;fill-opacity:1;fill-rule:nonzero;stroke:#00ffff;stroke-width:0;stroke-linecap:butt;stroke-linejoin:miter;stroke-miterlimit:10.43299961;stroke-dasharray:none;stroke-dashoffset:0;stroke-opacity:1;marker:none;enable-background:accumulate"
           id="path2473"
           transform="translate(-0.01513588,-0.27140436)" />
        <circle
           transform="matrix(1.0028595,0,0,1.0028595,1.9508969,-0.05434636)"
           r="0.033466794"
           cy="0.18117914"
           cx="-0.72553951"
           style="display:inline;overflow:visible;visibility:visible;fill:#00aeef;fill-opacity:1;fill-rule:nonzero;stroke:#00ffff;stroke-width:0;stroke-linecap:butt;stroke-linejoin:miter;stroke-miterlimit:10.43299961;stroke-dasharray:none;stroke-dashoffset:0;stroke-opacity:1;marker:none;enable-background:accumulate"
           id="path2475" />
        <circle
           transform="matrix(1.0028595,0,0,1.0028595,2.5136279,0.03044764)"
           r="0.033466794"
           cy="0.18117914"
           cx="-0.72553951"
           style="display:inline;overflow:visible;visibility:visible;fill:#00aeef;fill-opacity:1;fill-rule:nonzero;stroke:#00ffff;stroke-width:0;stroke-linecap:butt;stroke-linejoin:miter;stroke-miterlimit:10.43299961;stroke-dasharray:none;stroke-dashoffset:0;stroke-opacity:1;marker:none;enable-background:accumulate"
           id="path2477" />
        <circle
           transform="matrix(1.0028595,0,0,1.0028595,-0.014904,-0.05434636)"
           r="0.033466794"
           cy="0.18117914"
           cx="-0.72553951"
           style="fill:#000000;fill-opacity:1;stroke:none"
           id="path4695" />
        <circle
           transform="matrix(1.0028595,0,0,1.0028595,0.06989408,-0.05434636)"
           r="0.033466794"
           cy="0.18117914"
           cx="-0.72553951"
           style="fill:#000000;fill-opacity:1;stroke:none"
           id="path4697" />
        <circle
           transform="matrix(1.0028595,0,0,1.0028595,0.15469209,0.03044764)"
           r="0.033466794"
           cy="0.18117914"
           cx="-0.72553951"
           style="fill:#000000;fill-opacity:1;stroke:none"
           id="path4699" />
        <circle
           transform="matrix(1.0028595,0,0,1.0028595,-0.014904,0.11524974)"
           r="0.033466794"
           cy="0.18117914"
           cx="-0.72553951"
           style="fill:#000000;fill-opacity:1;stroke:none"
           id="path4701" />
        <circle
           transform="matrix(1.0028595,0,0,1.0028595,-0.09968566,0.11524974)"
           r="0.033466794"
           cy="0.18117914"
           cx="-0.72553951"
           style="fill:#000000;fill-opacity:1;stroke:none"
           id="path4703" />
        <circle
           transform="matrix(1.0028595,0,0,1.0028595,0.29348564,-0.13914436)"
           r="0.033466794"
           cy="0.18117914"
           cx="-0.72553951"
           style="fill:#000000;fill-opacity:1;stroke:none"
           id="path4707" />
        <circle
           transform="matrix(1.0028595,0,0,1.0028595,0.37827154,-0.05434636)"
           r="0.033466794"
           cy="0.18117914"
           cx="-0.72553951"
           style="fill:#000000;fill-opacity:1;stroke:none"
           id="path4709" />
        <circle
           transform="matrix(1.0028595,0,0,1.0028595,0.37827154,0.11524974)"
           r="0.033466794"
           cy="0.18117914"
           cx="-0.72553951"
           style="fill:#000000;fill-opacity:1;stroke:none"
           id="path4711" />
        <circle
           transform="matrix(1.0028595,0,0,1.0028595,0.46304934,0.11524974)"
           r="0.033466794"
           cy="0.18117914"
           cx="-0.72553951"
           style="fill:#000000;fill-opacity:1;stroke:none"
           id="path4713" />
        <circle
           transform="matrix(1.0028595,0,0,1.0028595,0.54783524,0.03044764)"
           r="0.033466794"
           cy="0.18117914"
           cx="-0.72553951"
           style="fill:#000000;fill-opacity:1;stroke:none"
           id="path4715" />
        <circle
           transform="matrix(1.0028595,0,0,1.0028595,0.54783524,-0.05434636)"
           r="0.033466794"
           cy="0.18117914"
           cx="-0.72553951"
           style="fill:#000000;fill-opacity:1;stroke:none"
           id="path4717" />
        <circle
           transform="matrix(1.0028595,0,0,1.0028595,0.46304934,-0.05434636)"
           r="0.033466794"
           cy="0.18117914"
           cx="-0.72553951"
           style="fill:#000000;fill-opacity:1;stroke:none"
           id="path4719" />
        <circle
           transform="matrix(1.0028595,0,0,1.0028595,0.54783524,-0.22392627)"
           r="0.033466794"
           cy="0.18117914"
           cx="-0.72553951"
           style="fill:#000000;fill-opacity:1;stroke:none"
           id="path4721" />
        <circle
           transform="matrix(1.0028595,0,0,1.0028595,0.68660055,-0.22392627)"
           r="0.033466794"
           cy="0.18117914"
           cx="-0.72553951"
           style="fill:#000000;fill-opacity:1;stroke:none"
           id="path4723" />
        <circle
           transform="matrix(1.0028595,0,0,1.0028595,0.68660055,-0.13914436)"
           r="0.033466794"
           cy="0.18117914"
           cx="-0.72553951"
           style="fill:#000000;fill-opacity:1;stroke:none"
           id="path4725" />
        <circle
           transform="matrix(1.0028595,0,0,1.0028595,0.68660055,-0.05434636)"
           r="0.033466794"
           cy="0.18117914"
           cx="-0.72553951"
           style="fill:#000000;fill-opacity:1;stroke:none"
           id="path4727" />
        <circle
           transform="matrix(1.0028595,0,0,1.0028595,0.68660055,0.11524974)"
           r="0.033466794"
           cy="0.18117914"
           cx="-0.72553951"
           style="fill:#000000;fill-opacity:1;stroke:none"
           id="path4729" />
        <circle
           transform="matrix(1.0028595,0,0,1.0028595,0.77138645,-0.22392627)"
           r="0.033466794"
           cy="0.18117914"
           cx="-0.72553951"
           style="fill:#000000;fill-opacity:1;stroke:none"
           id="path4731" />
        <circle
           transform="matrix(1.0028595,0,0,1.0028595,0.85618045,-0.22392627)"
           r="0.033466794"
           cy="0.18117914"
           cx="-0.72553951"
           style="fill:#000000;fill-opacity:1;stroke:none"
           id="path4733" />
        <circle
           transform="matrix(1.0028595,0,0,1.0028595,0.94097445,-0.13914436)"
           r="0.033466794"
           cy="0.18117914"
           cx="-0.72553951"
           style="fill:#000000;fill-opacity:1;stroke:none"
           id="path4735" />
        <circle
           transform="matrix(1.0028595,0,0,1.0028595,0.94097445,-0.05434636)"
           r="0.033466794"
           cy="0.18117914"
           cx="-0.72553951"
           style="fill:#000000;fill-opacity:1;stroke:none"
           id="path4737" />
        <circle
           transform="matrix(1.0028595,0,0,1.0028595,0.94097445,0.03044764)"
           r="0.033466794"
           cy="0.18117914"
           cx="-0.72553951"
           style="fill:#000000;fill-opacity:1;stroke:none"
           id="path4739" />
        <circle
           transform="matrix(1.0028595,0,0,1.0028595,0.94097445,0.11524974)"
           r="0.033466794"
           cy="0.18117914"
           cx="-0.72553951"
           style="fill:#000000;fill-opacity:1;stroke:none"
           id="path4741" />
        <circle
           transform="matrix(1.0028595,0,0,1.0028595,1.1645295,-0.02290056)"
           r="0.033466794"
           cy="0.18117914"
           cx="-0.72553951"
           style="fill:#000000;fill-opacity:1;stroke:none"
           id="path4743" />
        <circle
           transform="matrix(1.0028595,0,0,1.0028595,1.2493236,-0.02290056)"
           r="0.033466794"
           cy="0.18117914"
           cx="-0.72553951"
           style="fill:#000000;fill-opacity:1;stroke:none"
           id="path4745" />
        <circle
           transform="matrix(1.0028595,0,0,1.0028595,1.334158,0.06189744)"
           r="0.033466794"
           cy="0.18117914"
           cx="-0.72553951"
           style="fill:#000000;fill-opacity:1;stroke:none"
           id="path4747" />
        <circle
           transform="matrix(1.0028595,0,0,1.0028595,1.2493236,0.14669554)"
           r="0.033466794"
           cy="0.18117914"
           cx="-0.72553951"
           style="fill:#000000;fill-opacity:1;stroke:none"
           id="path4749" />
        <circle
           transform="matrix(1.0028595,0,0,1.0028595,1.1645295,0.14669554)"
           r="0.033466794"
           cy="0.18117914"
           cx="-0.72553951"
           style="fill:#000000;fill-opacity:1;stroke:none"
           id="path4751" />
        <circle
           transform="matrix(1.0028595,0,0,1.0028595,1.334158,0.31627384)"
           r="0.033466794"
           cy="0.18117914"
           cx="-0.72553951"
           style="fill:#000000;fill-opacity:1;stroke:none"
           id="path4753" />
        <circle
           transform="matrix(1.0028595,0,0,1.0028595,1.079776,0.23149354)"
           r="0.033466794"
           cy="0.18117914"
           cx="-0.72553951"
           style="fill:#000000;fill-opacity:1;stroke:none"
           id="path4755" />
        <circle
           transform="matrix(1.0028595,0,0,1.0028595,1.079776,0.31627384)"
           r="0.033466794"
           cy="0.18117914"
           cx="-0.72553951"
           style="fill:#000000;fill-opacity:1;stroke:none"
           id="path4757" />
        <circle
           transform="matrix(1.0028595,0,0,1.0028595,1.1645295,0.31627384)"
           r="0.033466794"
           cy="0.18117914"
           cx="-0.72553951"
           style="fill:#000000;fill-opacity:1;stroke:none"
           id="path4759" />
        <circle
           transform="matrix(1.0028595,0,0,1.0028595,1.2493236,0.31627384)"
           r="0.033466794"
           cy="0.18117914"
           cx="-0.72553951"
           style="fill:#000000;fill-opacity:1;stroke:none"
           id="path4761" />
        <circle
           transform="matrix(1.0028595,0,0,1.0028595,1.7272607,-0.22392627)"
           r="0.033466794"
           cy="0.18117914"
           cx="-0.72553951"
           style="fill:#000000;fill-opacity:1;stroke:none"
           id="path4763" />
        <circle
           transform="matrix(1.0028595,0,0,1.0028595,1.6424667,-0.22392627)"
           r="0.033466794"
           cy="0.18117914"
           cx="-0.72553951"
           style="fill:#000000;fill-opacity:1;stroke:none"
           id="path4765" />
        <circle
           transform="matrix(1.0028595,0,0,1.0028595,1.5577132,-0.22392627)"
           r="0.033466794"
           cy="0.18117914"
           cx="-0.72553951"
           style="fill:#000000;fill-opacity:1;stroke:none"
           id="path4767" />
        <circle
           transform="matrix(1.0028595,0,0,1.0028595,1.4729192,-0.13914436)"
           r="0.033466794"
           cy="0.18117914"
           cx="-0.72553951"
           style="fill:#000000;fill-opacity:1;stroke:none"
           id="path4769" />
        <circle
           transform="matrix(1.0028595,0,0,1.0028595,1.4729192,-0.05434636)"
           r="0.033466794"
           cy="0.18117914"
           cx="-0.72553951"
           style="fill:#000000;fill-opacity:1;stroke:none"
           id="path4771" />
        <circle
           transform="matrix(1.0028595,0,0,1.0028595,1.4729192,0.03044764)"
           r="0.033466794"
           cy="0.18117914"
           cx="-0.72553951"
           style="fill:#000000;fill-opacity:1;stroke:none"
           id="path4773" />
        <circle
           transform="matrix(1.0028595,0,0,1.0028595,1.6424667,0.11524974)"
           r="0.033466794"
           cy="0.18117914"
           cx="-0.72553951"
           style="fill:#000000;fill-opacity:1;stroke:none"
           id="path4775" />
        <circle
           transform="matrix(1.0028595,0,0,1.0028595,1.7272607,0.11524974)"
           r="0.033466794"
           cy="0.18117914"
           cx="-0.72553951"
           style="fill:#000000;fill-opacity:1;stroke:none"
           id="path4777" />
        <circle
           transform="matrix(1.0028595,0,0,1.0028595,1.8660623,-0.22392627)"
           r="0.033466794"
           cy="0.18117914"
           cx="-0.72553951"
           style="fill:#000000;fill-opacity:1;stroke:none"
           id="path4779" />
        <circle
           transform="matrix(1.0028595,0,0,1.0028595,1.9508969,-0.22392627)"
           r="0.033466794"
           cy="0.18117914"
           cx="-0.72553951"
           style="fill:#000000;fill-opacity:1;stroke:none"
           id="path4781" />
        <circle
           transform="matrix(1.0028595,0,0,1.0028595,2.0356909,-0.22392627)"
           r="0.033466794"
           cy="0.18117914"
           cx="-0.72553951"
           style="fill:#000000;fill-opacity:1;stroke:none"
           id="path4783" />
        <circle
           transform="matrix(1.0028595,0,0,1.0028595,2.0356909,-0.05434636)"
           r="0.033466794"
           cy="0.18117914"
           cx="-0.72553951"
           style="fill:#000000;fill-opacity:1;stroke:none"
           id="path4785" />
        <circle
           transform="matrix(1.0028595,0,0,1.0028595,1.8660623,0.03044764)"
           r="0.033466794"
           cy="0.18117914"
           cx="-0.72553951"
           style="fill:#000000;fill-opacity:1;stroke:none"
           id="path4787" />
        <circle
           transform="matrix(1.0028595,0,0,1.0028595,2.1204849,-0.13914436)"
           r="0.033466794"
           cy="0.18117914"
           cx="-0.72553951"
           style="fill:#000000;fill-opacity:1;stroke:none"
           id="path4789" />
        <circle
           transform="matrix(1.0028595,0,0,1.0028595,2.1204849,-0.05434636)"
           r="0.033466794"
           cy="0.18117914"
           cx="-0.72553951"
           style="fill:#000000;fill-opacity:1;stroke:none"
           id="path4791" />
        <circle
           transform="matrix(1.0028595,0,0,1.0028595,2.1204849,0.03044764)"
           r="0.033466794"
           cy="0.18117914"
           cx="-0.72553951"
           style="fill:#000000;fill-opacity:1;stroke:none"
           id="path4793" />
        <circle
           transform="matrix(1.0028595,0,0,1.0028595,2.1204849,0.11524974)"
           r="0.033466794"
           cy="0.18117914"
           cx="-0.72553951"
           style="fill:#000000;fill-opacity:1;stroke:none"
           id="path4795" />
        <circle
           transform="matrix(1.0028595,0,0,1.0028595,2.0356909,0.11524974)"
           r="0.033466794"
           cy="0.18117914"
           cx="-0.72553951"
           style="fill:#000000;fill-opacity:1;stroke:none"
           id="path4797" />
        <circle
           transform="matrix(1.0028595,0,0,1.0028595,1.9508969,0.11524974)"
           r="0.033466794"
           cy="0.18117914"
           cx="-0.72553951"
           style="fill:#000000;fill-opacity:1;stroke:none"
           id="path4799" />
        <circle
           transform="matrix(1.0028595,0,0,1.0028595,2.259246,-0.22392627)"
           r="0.033466794"
           cy="0.18117914"
           cx="-0.72553951"
           style="fill:#000000;fill-opacity:1;stroke:none"
           id="path4801" />
        <circle
           transform="matrix(1.0028595,0,0,1.0028595,2.3439995,-0.13914436)"
           r="0.033466794"
           cy="0.18117914"
           cx="-0.72553951"
           style="fill:#000000;fill-opacity:1;stroke:none"
           id="path4803" />
        <circle
           transform="matrix(1.0028595,0,0,1.0028595,2.4288339,-0.13914436)"
           r="0.033466794"
           cy="0.18117914"
           cx="-0.72553951"
           style="fill:#000000;fill-opacity:1;stroke:none"
           id="path4805" />
        <circle
           transform="matrix(1.0028595,0,0,1.0028595,2.259246,-0.13914436)"
           r="0.033466794"
           cy="0.18117914"
           cx="-0.72553951"
           style="fill:#000000;fill-opacity:1;stroke:none"
           id="path4807" />
        <circle
           transform="matrix(1.0028595,0,0,1.0028595,2.259246,-0.05434636)"
           r="0.033466794"
           cy="0.18117914"
           cx="-0.72553951"
           style="fill:#000000;fill-opacity:1;stroke:none"
           id="path4809" />
        <circle
           transform="matrix(1.0028595,0,0,1.0028595,2.259246,0.03044764)"
           r="0.033466794"
           cy="0.18117914"
           cx="-0.72553951"
           style="fill:#000000;fill-opacity:1;stroke:none"
           id="path4811" />
        <circle
           transform="matrix(1.0028595,0,0,1.0028595,2.3439995,0.11524974)"
           r="0.033466794"
           cy="0.18117914"
           cx="-0.72553951"
           style="fill:#000000;fill-opacity:1;stroke:none"
           id="path4813" />
        <circle
           transform="matrix(1.0028595,0,0,1.0028595,2.4288339,0.11524974)"
           r="0.033466794"
           cy="0.18117914"
           cx="-0.72553951"
           style="fill:#000000;fill-opacity:1;stroke:none"
           id="path4815" />
        <circle
           transform="matrix(1.0028595,0,0,1.0028595,0.29348564,-0.22392627)"
           r="0.033466794"
           cy="0.18117914"
           cx="-0.72553951"
           style="fill:#000000;fill-opacity:1;stroke:none"
           id="path4705" />
        <circle
           transform="matrix(1.0028595,0,0,1.0028595,0.15469209,-0.22392627)"
           r="0.033466794"
           cy="0.18117914"
           cx="-0.72553951"
           style="fill:#000000;fill-opacity:1;stroke:none"
           id="path4689" />
        <circle
           transform="matrix(1.0028595,0,0,1.0028595,0.06989408,-0.22392627)"
           r="0.033466794"
           cy="0.18117914"
           cx="-0.72553951"
           style="fill:#000000;fill-opacity:1;stroke:none"
           id="path2469" />
        <circle
           transform="matrix(1.0028595,0,0,1.0028595,-0.09968566,-0.13914436)"
           r="0.033466794"
           cy="0.18117914"
           cx="-0.72553951"
           style="fill:#000000;fill-opacity:1;stroke:none"
           id="path4691" />
        <circle
           transform="matrix(1.0028595,0,0,1.0028595,-0.0149317,-0.22388861)"
           r="0.033466794"
           cy="0.18117914"
           cx="-0.72553951"
           style="fill:#000000;fill-opacity:1;stroke:none"
           id="path2467" />
        <g
           aria-label="syn2cat.lu "
           transform="scale(1.0019162,0.99808747)"
           style="font-style:normal;font-variant:normal;font-weight:normal;font-stretch:normal;font-size:0.30213824px;line-height:125%;font-family:'League Gothic';-inkscape-font-specification:'League Gothic';letter-spacing:0px;word-spacing:0px;fill:#00aeef;fill-opacity:1;stroke:none;stroke-width:0.00755346px;stroke-linecap:butt;stroke-linejoin:miter;stroke-opacity:1"
           id="text905">
          <path
             d="m 1.3409543,0.47403797 c 0,0.0111388 0.00691,0.0173427 0.013536,0.0236876 0.00437,0.00423 0.00888,0.009024 0.00888,0.0136768 0,0.004512 -8.46e-4,0.009306 -0.00493,0.009306 -0.00592,0 -0.00663,-0.007614 -0.00663,-0.0117028 h -0.013254 c 0,0.008319 0.00254,0.0235467 0.019881,0.0235467 0.013536,0 0.018189,-0.0115618 0.018189,-0.0211497 0,-0.0100109 -0.00691,-0.0176247 -0.013113,-0.0235466 -0.00437,-0.00423 -0.00931,-0.008883 -0.00931,-0.0138178 0,-0.003948 5.64e-4,-0.008883 0.00437,-0.009024 0.00451,0 0.00465,0.005358 0.00465,0.009024 h 0.013254 c 0,-0.008742 -0.00155,-0.0211497 -0.018189,-0.0208677 -0.013677,2.8199e-4 -0.017343,0.0117028 -0.017343,0.0208677 z"
             style="font-size:0.14099789px;letter-spacing:0.00755346px;fill:#00aeef;fill-opacity:1;stroke-width:0.00755346px"
             id="path895" />
          <path
             d="m 1.3893399,0.5587777 c 0,0 0.00479,2.8199e-4 0.00634,2.8199e-4 0.01128,0 0.01833,-0.0111388 0.01974,-0.0218547 l 0.013677,-0.0829068 h -0.013959 l -0.00564,0.0473753 -2.82e-4,0.003948 h -5.64e-4 l -2.82e-4,-0.003948 -0.00564,-0.0473753 h -0.013959 l 0.013113,0.0793818 c 0,0.00564 -0.00324,0.0121258 -0.00916,0.0126898 -0.00226,0 -0.00338,-2.8199e-4 -0.00338,-2.8199e-4 z"
             style="font-size:0.14099789px;letter-spacing:0.00755346px;fill:#00aeef;fill-opacity:1;stroke-width:0.00755346px"
             id="path897" />
          <path
             d="m 1.4629575,0.46698807 c 0.00169,0 0.00338,4.2299e-4 0.00338,0.003384 v 0.0610521 h 0.014241 v -0.0631671 c 0,-0.006345 -0.0031,-0.0150868 -0.010716,-0.0150868 -0.00493,0 -0.010434,0.006909 -0.011562,0.007614 v -0.006486 h -0.014241 v 0.0771258 h 0.014241 c 0,-0.0160738 0,-0.0170607 0,-0.0607701 0,0 0.00183,-0.003666 0.00465,-0.003666 z"
             style="font-size:0.14099789px;letter-spacing:0.00755346px;fill:#00aeef;fill-opacity:1;stroke-width:0.00755346px"
             id="path899" />
          <path
             d="m 1.5130769,0.46064317 v -0.007191 c 0,-0.006627 8.46e-4,-0.0126898 0.00508,-0.0126898 0.00451,0 0.00508,0.00705 0.00508,0.0126898 -7.05e-4,0.0253796 -0.025803,0.0628851 -0.025803,0.0628851 v 0.0150868 h 0.041312 v -0.0150868 h -0.024111 c 0.00775,-0.0132538 0.023829,-0.0427224 0.023829,-0.063872 0,-0.0142408 -0.00479,-0.0258026 -0.020304,-0.0258026 -0.016638,0 -0.020304,0.0128308 -0.020304,0.0267896 v 0.007191 z"
             style="font-size:0.14099789px;letter-spacing:0.00755346px;fill:#00aeef;fill-opacity:1;stroke-width:0.00755346px"
             id="path901" />
          <path
             d="m 1.5703211,0.47206399 c 0,-0.00282 1.41e-4,-0.006204 0.00395,-0.006204 0.00324,0 0.00409,0.001551 0.00409,0.006204 v 0.009306 h 0.014241 v -0.006063 c 0,-0.0172018 -0.00634,-0.0221367 -0.01833,-0.0221367 -0.010293,0 -0.018189,0.00564 -0.018189,0.0228417 v 0.0336985 c 0,0.0172017 0.0079,0.0228417 0.018189,0.0228417 0.011985,0 0.01833,-0.004935 0.01833,-0.0221367 v -0.007473 h -0.014241 v 0.0107158 c 0,0.004653 -8.459e-4,0.006204 -0.00409,0.006204 -0.00381,0 -0.00395,-0.003384 -0.00395,-0.006204 z"
             style="font-size:0.14099789px;letter-spacing:0.00755346px;fill:#00aeef;fill-opacity:1;stroke-width:0.00755346px"
             id="path903" />
          <path
             d="m 1.6199756,0.51140241 c 0,-0.007332 0.00296,-0.0142408 0.00987,-0.0172017 v 0.0197397 c 0,0.002538 -0.00268,0.004653 -0.00592,0.004653 -0.00352,0 -0.00395,-0.005358 -0.00395,-0.007191 z m -0.013959,0.002115 c 0,0.0162148 0.00761,0.0190347 0.011421,0.0190347 0.00578,0 0.010011,-0.004653 0.011421,-0.007332 h 9.87e-4 c 0,8.4599e-4 0,0.004794 0.00127,0.006204 0,0 4.229e-4,0 0.013959,0 -5.639e-4,-0.003384 -9.869e-4,-0.006486 -9.869e-4,-0.0133948 0,-0.005217 0,-0.0183297 0,-0.0232647 v -0.0241106 c 0,-0.0100109 -0.00804,-0.0174837 -0.017343,-0.0174837 -0.010857,0 -0.019176,0.009306 -0.019176,0.0205857 0,5.6399e-4 0,0.003243 0,0.003243 h 0.014241 c 1.41e-4,-0.004371 -7.05e-4,-0.0114208 0.00409,-0.0114208 0.00395,0 0.00395,0.00423 0.00395,0.00705 0,0.00141 0,0.005076 0,0.005922 0,7.0499e-4 0,0.001692 0,0.002538 -0.00141,0.004653 -0.023829,0.006345 -0.023829,0.0324295 z"
             style="font-size:0.14099789px;letter-spacing:0.00755346px;fill:#00aeef;fill-opacity:1;stroke-width:0.00755346px"
             id="path905" />
          <path
             d="m 1.6647768,0.43526355 v 0.0190347 h -0.00719 v 0.0128308 h 0.00719 v 0.0394794 c 0,0.009024 0,0.0259436 0.016356,0.0259436 0.00451,0 0.00761,-9.8699e-4 0.00761,-9.8699e-4 v -0.0139588 c 0,0 -0.00282,5.6399e-4 -0.00522,5.6399e-4 -0.00451,0 -0.00451,-0.007896 -0.00451,-0.0126898 v -0.0383514 h 0.00973 v -0.0128308 h -0.00973 v -0.0190347 z"
             style="font-size:0.14099789px;letter-spacing:0.00755346px;fill:#00aeef;fill-opacity:1;stroke-width:0.00755346px"
             id="path907" />
          <path
             d="m 1.7018186,0.53142411 h 0.014805 v -0.0156508 h -0.014805 z"
             style="font-size:0.14099789px;letter-spacing:0.00755346px;fill:#00aeef;fill-opacity:1;stroke-width:0.00755346px"
             id="path909" />
          <path
             d="m 1.7476177,0.53142411 c 0,-0.0764209 0,-0.10363345 0,-0.10363345 0,0 -0.012549,0 -0.014241,0 0,8.4599e-4 0,0.0563992 0,0.10363345 z"
             style="font-size:0.14099789px;letter-spacing:0.00755346px;fill:#00aeef;fill-opacity:1;stroke-width:0.00755346px"
             id="path911" />
          <path
             d="m 1.7838841,0.5187343 c -0.00169,0 -0.00338,-4.23e-4 -0.00338,-0.003384 v -0.0610521 h -0.014241 v 0.063167 c 0,0.006345 0.0031,0.0150868 0.010716,0.0150868 0.00493,0 0.010434,-0.006909 0.011562,-0.007614 v 0.006486 h 0.014241 V 0.45429826 H 1.788537 c 0,0.0160738 0,0.0170608 0,0.0607701 0,0 -0.00183,0.003666 -0.00465,0.003666 z"
             style="font-size:0.14099789px;letter-spacing:0.00755346px;fill:#00aeef;fill-opacity:1;stroke-width:0.00755346px"
             id="path913" />
        </g>
      </g>
    </g>
  </g>
</svg>
