<?xml version="1.0" encoding="utf-8"?>
<!-- Generator: Adobe Illustrator 16.0.0, SVG Export Plug-In . SVG Version: 6.00 Build 0)  -->
<!DOCTYPE svg PUBLIC "-//W3C//DTD SVG 1.1//EN" "http://www.w3.org/Graphics/SVG/1.1/DTD/svg11.dtd">
<svg version="1.1" id="Layer_1" xmlns="http://www.w3.org/2000/svg" xmlns:xlink="http://www.w3.org/1999/xlink" x="0px" y="0px"
	 width="612px" height="792px" viewBox="0 0 612 792" enable-background="new 0 0 612 792" xml:space="preserve">
<g>
	<path fill="#424546" d="M515.883,396.905c0,116.24-94.232,210.473-210.473,210.473c-116.241,0-210.473-94.232-210.473-210.473
		c0-116.244,94.232-210.476,210.473-210.476C421.65,186.43,515.883,280.662,515.883,396.905z"/>
	<g>
		<path fill="#FFFFFF" d="M262.846,582.811c2.132-9.664,4.638-21.03,4.677-21.203c0.346,0.076,2.914,0.643,2.914,0.643
			s-1.229,5.566-4.677,21.202L262.846,582.811z"/>
		<path fill="#FFFFFF" d="M278.671,579.904l-0.307,1.838c0,0-0.684,4.11-4.504,3.475c-3.79-0.634-3.092-4.829-3.092-4.829
			l1.337-8.019c0,0,0.728-4.196,4.52-3.562c3.82,0.636,3.104,4.741,3.104,4.741l-0.772,4.637l-4.87-0.812l-0.578,3.47
			c0,0-0.267,1.603,0.812,1.784c1.108,0.184,1.317-1.428,1.317-1.428l0.292-1.75L278.671,579.904z M274.473,575.069l2.129,0.356
			l0.373-2.245c0,0,0.331-1.623-0.777-1.81c-1.079-0.179-1.35,1.453-1.35,1.453L274.473,575.069z"/>
		<path fill="#FFFFFF" d="M284.001,586.387l-0.947-16.342l2.878,0.3l0.004,9.412l0.01,1.04l0.234,0.025l0.225-1.018l1.935-9.211
			l2.878,0.299l-4.281,15.797L284.001,586.387z"/>
		<path fill="#FFFFFF" d="M301.118,581.772l-0.082,1.86c0,0-0.178,4.159-4.046,3.993c-3.837-0.167-3.65-4.417-3.65-4.417
			l0.351-8.114c0,0,0.215-4.25,4.052-4.083c3.865,0.167,3.656,4.329,3.656,4.329l-0.204,4.69l-4.928-0.212l-0.152,3.512
			c0,0-0.071,1.622,1.021,1.668c1.123,0.051,1.134-1.575,1.134-1.575l0.076-1.772L301.118,581.772z M296.365,577.486l2.154,0.094
			l0.099-2.273c0,0,0.133-1.648-0.99-1.696c-1.091-0.048-1.165,1.603-1.165,1.603L296.365,577.486z"/>
		<path fill="#FFFFFF" d="M305.311,587.589c-0.161-9.901-0.353-21.545-0.356-21.723c0.354-0.006,2.985-0.049,2.985-0.049
			s0.094,5.703,0.356,21.724L305.311,587.589z"/>
		<path fill="#FFFFFF" d="M311.707,572.697l-0.091-1.502c-0.175-2.918,0.43-5.644,3.907-5.853c3.24-0.195,4.389,2.16,4.566,5.138
			c0.266,4.419-2.726,10.78-4.179,13.647l5.038-0.303l0.189,3.153l-8.635,0.517l-0.187-3.152c0,0,4.772-8.151,4.604-13.467
			c-0.071-1.177-0.277-2.644-1.219-2.587c-0.885,0.054-0.987,1.332-0.902,2.714l0.088,1.505L311.707,572.697z"/>
		<path fill="#FFFFFF" d="M324.953,583.294l3.082-0.342l0.362,3.257l-3.079,0.342L324.953,583.294z"/>
		<path fill="#FFFFFF" d="M332.604,585.652c-1.479-9.783-3.221-21.291-3.246-21.466c0.351-0.051,2.949-0.444,2.949-0.444
			s0.851,5.635,3.245,21.463L332.604,585.652z"/>
		<path fill="#FFFFFF" d="M343.948,580.178c-1.835-8.968-1.878-9.172-2.551-12.472l2.921-0.597l3.24,15.828l-2.924,0.6l-0.271-1.332
			c-0.203,0.192-1.04,1.841-2.056,2.047c-1.561,0.32-2.564-1.343-2.83-2.646l-2.652-12.963l2.921-0.597l2.564,12.528
			c0.125,0.607,0.489,0.625,0.837,0.554C343.725,581.01,343.948,580.178,343.948,580.178z"/>
	</g>
	<g>
		<path fill="#FFFFFF" d="M255.922,210.977l7.083-1.747l0.785,3.184l-3.985,0.981l1.364,5.533l2.867-0.707l0.834,3.384l-2.867,0.707
			l1.428,5.791l3.985-0.981l0.785,3.181l-7.083,1.747L255.922,210.977z"/>
		<path fill="#FFFFFF" d="M271.049,207.389c3.763-0.769,4.983,2.494,5.414,4.877l-3.028,0.845c-0.259-1.422-0.762-3.042-1.808-2.853
			c-0.809,0.175-0.912,1.094-0.691,2.315c0.263,1.453,1.807,2.856,3.349,4.408c1.848,1.917,3.714,3.772,4.129,6.068
			c0.515,2.847,0.042,5.544-3.389,6.167c-4.041,0.729-5.116-2.228-5.689-5.395l3.03-0.848c0.319,1.772,0.831,3.602,2.139,3.365
			c0.931-0.167,1.096-1.25,0.854-2.587c-0.259-1.422-1.906-2.895-3.424-4.484c-1.876-1.911-3.666-3.839-4.082-6.135
			C267.434,210.808,268.094,207.986,271.049,207.389z"/>
		<path fill="#FFFFFF" d="M278.92,209.64l-0.377-3.257l9.151-1.061l0.379,3.254l-2.991,0.348l2.122,18.305l-3.168,0.367
			l-2.124-18.305L278.92,209.64z"/>
		<path fill="#FFFFFF" d="M295.107,226.576l-2.508,0.122l-1.072-21.689l2.508-0.125c5.903-0.263,6.46,2.047,6.882,10.546
			C301.336,223.901,301.008,226.254,295.107,226.576z M295.627,223.353c2.242-0.11,2.364-0.679,1.982-7.79
			c-0.319-7.083-0.495-7.637-2.74-7.527L295.627,223.353z"/>
		<path fill="#FFFFFF" d="M311,211.475l0.079-1.507c0.152-2.92,1.061-5.564,4.541-5.383c3.249,0.169,4.125,2.644,3.967,5.624
			c-0.231,4.428-3.919,10.419-5.687,13.108l5.048,0.263l-0.167,3.158l-8.646-0.453l0.164-3.158c0,0,5.666-7.575,6.09-12.878
			c0.062-1.182,0.023-2.664-0.922-2.712c-0.885-0.048-1.131,1.213-1.201,2.602l-0.079,1.504L311,211.475z"/>
		<path fill="#FFFFFF" d="M326.184,227.772c-4.253-0.517-3.656-5.18-3.656-5.18l1.553-12.701c0,0,0.537-4.668,4.792-4.151
			c4.252,0.521,3.656,5.18,3.656,5.18l-1.553,12.703C330.976,223.624,330.438,228.292,326.184,227.772z M328.496,208.823
			c-1.114-0.136-1.25,1.453-1.25,1.453l-1.549,12.704c0,0-0.252,1.578,0.862,1.713c1.113,0.136,1.249-1.456,1.249-1.456l1.55-12.701
			C329.358,210.536,329.61,208.958,328.496,208.823z"/>
		<path fill="#FFFFFF" d="M335.884,211.704l0.365-2.005c2.708-0.051,3.813-2.013,3.813-2.013l1.892,0.342l-3.864,21.367
			l-3.139-0.568l3.028-16.744L335.884,211.704z"/>
		<path fill="#FFFFFF" d="M346.668,226.435l-4.796-1.145l0.65-2.729l7.826-12.701l3.103,0.738l-3.289,13.783l1.437,0.345
			l-0.65,2.726l-1.437-0.342l-1.097,4.595l-2.842-0.676L346.668,226.435z M345.166,223.192l2.155,0.514l1.574-6.604l0.15-0.633
			l-0.173-0.04l-0.322,0.591L345.166,223.192z"/>
	</g>
	<g>
		<g>
			
				<line fill="none" stroke="#FFFFFF" stroke-width="1.4603" stroke-linecap="round" stroke-miterlimit="10" x1="252.928" y1="570.339" x2="252.928" y2="570.339"/>
			
				<path fill="none" stroke="#FFFFFF" stroke-width="1.4603" stroke-linecap="round" stroke-miterlimit="10" stroke-dasharray="0,3.8757" d="
				M249.23,569.178c-72.545-23.646-124.975-91.839-124.975-172.272c0-79.238,50.871-146.594,121.732-171.188"/>
			
				<line fill="none" stroke="#FFFFFF" stroke-width="1.4603" stroke-linecap="round" stroke-miterlimit="10" x1="247.821" y1="225.092" x2="247.821" y2="225.092"/>
		</g>
	</g>
	<g>
		<g>
			
				<line fill="none" stroke="#FFFFFF" stroke-width="1.4603" stroke-linecap="round" stroke-miterlimit="10" x1="362.959" y1="225.078" x2="362.959" y2="225.078"/>
			
				<path fill="none" stroke="#FFFFFF" stroke-width="1.4603" stroke-linecap="round" stroke-miterlimit="10" stroke-dasharray="0,3.8828" d="
				M366.627,226.35c69.922,25.104,119.936,91.991,119.936,170.555c0,81.394-53.679,150.255-127.576,173.099"/>
			
				<line fill="none" stroke="#FFFFFF" stroke-width="1.4603" stroke-linecap="round" stroke-miterlimit="10" x1="357.129" y1="570.567" x2="357.129" y2="570.567"/>
		</g>
	</g>
	<g>
		<circle fill="#FFFFFF" cx="305.416" cy="345.928" r="19.72"/>
		<path fill="#FFFFFF" d="M275.273,327.453c-2.488,0-4.974-0.947-6.868-2.847c-3.8-3.794-3.8-9.947,0-13.741
			c20.406-20.405,53.611-20.405,74.019,0c3.792,3.789,3.792,9.944,0,13.741c-3.797,3.792-9.949,3.792-13.744,0
			c-12.831-12.834-33.701-12.834-46.534,0C280.25,326.505,277.761,327.453,275.273,327.453z"/>
		<path fill="#FFFFFF" d="M255.74,307.915c-2.488,0-4.974-0.947-6.874-2.844c-3.794-3.794-3.794-9.947,0-13.744
			c15.103-15.101,35.19-23.419,56.55-23.419c21.361,0,41.441,8.315,56.545,23.417c3.789,3.792,3.789,9.947-0.003,13.744
			c-3.791,3.794-9.946,3.797-13.741,0c-11.434-11.431-26.628-17.733-42.794-17.733c-16.173,0-31.375,6.302-42.81,17.736
			C260.71,306.968,258.225,307.915,255.74,307.915z"/>
		<path fill="#FFFFFF" d="M237.257,287.493c-2.485,0-4.975-0.947-6.871-2.847c-3.797-3.792-3.797-9.944,0-13.738
			c20.035-20.043,46.685-31.076,75.03-31.079c28.342,0,54.984,11.036,75.025,31.07c3.789,3.797,3.789,9.953,0,13.747
			c-3.795,3.794-9.953,3.794-13.744,0c-16.368-16.368-38.131-25.382-61.281-25.382c-23.154,0-44.922,9.017-61.292,25.382
			C242.228,286.545,239.745,287.493,237.257,287.493z"/>
	</g>
	<g>
		<path fill="#FFFFFF" d="M302.054,393.247l-0.614-4.105l-0.078-0.486h-0.064l-0.078,0.486l-0.613,4.105h-1.322l-1.274-8.604h1.448
			l0.503,4.499l0.062,0.489h0.095l0.079-0.489l0.66-4.499h0.943l0.662,4.499l0.078,0.489h0.095l0.062-0.489l0.503-4.499h1.447
			l-1.273,8.604H302.054z"/>
		<path fill="#FFFFFF" d="M305.441,381.688h1.589v1.586h-1.589V381.688z M305.441,393.247v-8.604h1.589v8.604H305.441z"/>
		<path fill="#FFFFFF" d="M308.621,393.247v-7.17h-0.804v-1.434h0.804v-0.124v-0.11c0-0.896,0-2.785,1.822-2.785
			c0.503,0,0.74,0.11,0.74,0.11v1.368c0,0-0.203-0.062-0.472-0.062c-0.535,0-0.504,0.99-0.504,1.382v0.127v0.093h0.804v1.434h-0.804
			v7.17H308.621z"/>
		<path fill="#FFFFFF" d="M311.941,381.688h1.589v1.586h-1.589V381.688z M311.941,393.247v-8.604h1.589v8.604H311.941z"/>
	</g>
	<g>
		<path fill="#FFFFFF" d="M226.611,380.153h10.3v60.569h13.64v9.537h-23.94V380.153z"/>
		<path fill="#FFFFFF" d="M278.875,431.563v6.009c0,0,0,13.449-12.495,13.449c-12.399,0-12.399-13.735-12.399-13.735v-26.229
			c0,0,0.095-13.736,12.494-13.736c12.496,0,12.4,13.45,12.4,13.45v15.167h-15.928v11.349c0,0,0,5.248,3.528,5.248
			c3.625,0,3.434-5.248,3.434-5.248v-5.723H278.875z M262.947,418.402h6.962v-7.346c0,0,0.191-5.341-3.434-5.341
			c-3.528,0-3.528,5.341-3.528,5.341V418.402z"/>
		<path fill="#FFFFFF" d="M290.409,450.259l-8.488-52.175h9.348l3.147,30.236l0.381,3.34h0.764l0.381-3.34l3.147-30.236h9.347
			l-8.489,52.175H290.409z"/>
		<path fill="#FFFFFF" d="M336.856,431.563v6.009c0,0,0,13.449-12.494,13.449c-12.401,0-12.401-13.735-12.401-13.735v-26.229
			c0,0,0.094-13.736,12.495-13.736c12.497,0,12.4,13.45,12.4,13.45v15.167h-15.93v11.349c0,0,0,5.248,3.529,5.248
			c3.624,0,3.435-5.248,3.435-5.248v-5.723H336.856z M320.927,418.402h6.964v-7.346c0,0,0.189-5.341-3.435-5.341
			c-3.529,0-3.529,5.341-3.529,5.341V418.402z"/>
		<path fill="#FFFFFF" d="M343.241,450.259c0-31.953,0-69.532,0-70.106c1.145,0,9.636,0,9.636,0s0,18.41,0,70.106H343.241z"/>
		<path fill="#FFFFFF" d="M359.547,402.376v-4.863c0-9.443,2.479-18.123,13.735-18.123c10.492,0,13.735,7.823,13.735,17.456
			c0,14.307-10.874,34.24-16.122,43.206h16.312v10.207h-27.946v-10.207c0,0,16.979-25.37,17.454-42.539
			c0-3.814-0.382-8.583-3.433-8.583c-2.861,0-3.436,4.1-3.436,8.583v4.863H359.547z"/>
	</g>
	<g>
		<path fill="#FFFFFF" d="M281.639,471.176h1.91v0.682c0,0,0.812-0.834,1.513-0.834c1.04,0,1.474,1.173,1.474,2.024v6.599
			c0,0.852-0.434,2.024-1.474,2.024c-0.7,0-1.513-0.834-1.513-0.834v4.235h-1.91V471.176z M283.549,479.251
			c0,0.3,0.282,0.622,0.566,0.622s0.511-0.264,0.511-0.622v-5.808c0-0.359-0.227-0.622-0.511-0.622
			c-0.264,0-0.566,0.263-0.566,0.622C283.549,475.79,283.549,477.263,283.549,479.251z"/>
		<path fill="#FFFFFF" d="M290.758,474.77c0-0.116,0-0.246,0-0.342c0-0.113,0-0.605,0-0.795c0-0.376,0-0.944-0.529-0.944
			c-0.643,0-0.53,0.944-0.548,1.532h-1.91c0,0,0-0.359,0-0.436c0-1.513,1.115-2.762,2.571-2.762c1.249,0,2.326,1.003,2.326,2.347
			v3.231c0,0.661,0,2.42,0,3.121c0,0.925,0.057,1.344,0.133,1.796c-1.815,0-1.872,0-1.872,0c-0.171-0.189-0.171-0.719-0.171-0.831
			h-0.131c-0.189,0.358-0.756,0.983-1.532,0.983c-0.511,0-1.531-0.379-1.531-2.553C287.563,475.62,290.57,475.392,290.758,474.77z
			 M289.965,479.797c0.434,0,0.793-0.283,0.793-0.622v-2.649c-0.926,0.398-1.323,1.326-1.323,2.307
			C289.435,479.078,289.492,479.797,289.965,479.797z"/>
		<path fill="#FFFFFF" d="M296.323,471.023c2.231-0.037,2.44,1.628,2.44,2.799h-1.778c0-0.492-0.019-1.21-0.624-1.21
			c-0.51,0.02-0.586,0.681-0.586,1.21c0,0.661,0.662,1.286,1.248,1.854c0.833,0.792,1.759,1.815,1.759,3.155
			c0,1.287-0.624,2.839-2.438,2.839c-2.327,0-2.667-2.044-2.667-3.158h1.777c0,0.549,0.095,1.569,0.889,1.569
			c0.548,0,0.662-0.645,0.662-1.25c0-0.622-0.605-1.267-1.192-1.832c-0.889-0.851-1.815-1.685-1.815-3.178
			C293.997,472.595,294.489,471.062,296.323,471.023z"/>
		<path fill="#FFFFFF" d="M302.153,471.023c2.231-0.037,2.44,1.628,2.44,2.799h-1.778c0-0.492-0.018-1.21-0.623-1.21
			c-0.511,0.02-0.587,0.681-0.587,1.21c0,0.661,0.662,1.286,1.248,1.854c0.833,0.792,1.759,1.815,1.759,3.155
			c0,1.287-0.624,2.839-2.438,2.839c-2.327,0-2.667-2.044-2.667-3.158h1.777c0,0.549,0.095,1.569,0.889,1.569
			c0.548,0,0.662-0.645,0.662-1.25c0-0.622-0.605-1.267-1.192-1.832c-0.889-0.851-1.815-1.685-1.815-3.178
			C299.827,472.595,300.319,471.062,302.153,471.023z"/>
		<path fill="#FFFFFF" d="M310.044,481.519l-0.737-4.934l-0.094-0.589h-0.076l-0.095,0.589l-0.736,4.934h-1.589l-1.531-10.343h1.739
			l0.605,5.409l0.076,0.585h0.113l0.095-0.585l0.795-5.409h1.134l0.794,5.409l0.094,0.585h0.112l0.077-0.585l0.604-5.409h1.739
			l-1.53,10.343H310.044z"/>
		<path fill="#FFFFFF" d="M318.789,479.005c0,0,0.018,2.666-2.459,2.666c-2.46,0-2.438-2.726-2.438-2.726v-5.199
			c0,0-0.022-2.723,2.438-2.723c2.477,0,2.459,2.666,2.459,2.666V479.005z M316.33,472.688c-0.701,0-0.646,1.058-0.646,1.058v5.199
			c0,0-0.056,1.041,0.646,1.041c0.718,0,0.661-1.041,0.661-1.041v-5.199C316.991,473.746,317.048,472.688,316.33,472.688z"/>
		<path fill="#FFFFFF" d="M323.918,473.141c0,0-0.888-0.282-1.492,0.246c-0.343,0.303-0.419,0.625-0.419,0.947
			c0,5.861,0,5.03,0,7.185h-1.908v-10.343h1.908v1.153c0.057-0.266,0.512-1.306,1.911-1.306V473.141z"/>
		<path fill="#FFFFFF" d="M329.576,481.519h-1.908v-0.682c0,0-0.814,0.834-1.516,0.834c-1.041,0-1.474-1.173-1.474-2.024v-6.599
			c0-0.852,0.433-2.024,1.474-2.024c0.701,0,1.516,0.834,1.516,0.834v-4.236h1.908V481.519z M327.668,473.443
			c0-0.303-0.286-0.622-0.568-0.622c-0.286,0-0.512,0.263-0.512,0.622v5.808c0,0.358,0.226,0.622,0.512,0.622
			c0.263,0,0.568-0.264,0.568-0.622C327.668,476.904,327.668,475.431,327.668,473.443z"/>
	</g>
	<g>
		<path fill="#FFFFFF" d="M247.896,522.683h-5.256l-0.657-1.772c0,0-1.05,2.168-3.612,2.168c-3.482,0-4.665-2.496-4.665-5.519
			v-15.57c0-2.955,1.183-5.452,4.665-5.452c2.562,0,3.612,2.169,3.612,2.169v-1.444c0-1.448-1.182-5.059-6.109-5.059
			s-6.11,3.61-6.11,5.059v28.509c0,1.577,1.183,4.928,6.11,4.928c2.825,0,4.336-0.724,5.386-2.035l4.862,2.757
			c-1.774,2.366-4.73,4.6-10.248,4.6c-9.657,0-12.022-7.227-12.022-10.249v-28.509c0-3.155,2.365-10.578,12.022-10.578
			c9.657,0,12.022,7.423,12.022,10.578V522.683z M241.983,502.515c0-1.049-0.656-1.708-1.577-1.708
			c-0.985,0-1.511,0.526-1.511,1.708v14.584c0,1.185,0.525,1.708,1.511,1.708c0.92,0,1.577-0.523,1.577-1.708V502.515z"/>
		<path fill="#FFFFFF" d="M260.121,499.034c7.751-0.133,8.475,5.649,8.475,9.724h-6.176c0-1.708-0.065-4.204-2.167-4.204
			c-1.774,0.064-2.037,2.363-2.037,4.204c0,2.299,2.3,4.467,4.336,6.438c2.891,2.757,6.11,6.306,6.11,10.971
			c0,4.468-2.167,9.854-8.474,9.854c-8.081,0-9.264-7.094-9.264-10.971h6.175c0,1.906,0.33,5.451,3.089,5.451
			c1.904,0,2.299-2.233,2.299-4.334c0-2.169-2.102-4.402-4.139-6.373c-3.088-2.957-6.307-5.847-6.307-11.035
			C252.04,504.485,253.749,499.164,260.121,499.034z"/>
		<path fill="#FFFFFF" d="M271.032,542.324c0,0,0.524,0.134,1.576,0.134c2.758-0.264,4.27-3.286,4.27-5.912l-6.109-36.985h6.503
			l2.628,22.073l0.131,1.838h0.263l0.131-1.838l2.626-22.073h6.504l-6.373,38.628c-0.656,4.99-3.941,10.182-9.196,10.182
			c-0.724,0-2.956-0.134-2.956-0.134V542.324z"/>
		<path fill="#FFFFFF" d="M299.611,507.18c0,20.366,0,20.824,0,28.314h-6.635v-35.934h6.635v3.022
			c0.526-0.331,3.087-3.549,5.388-3.549c3.547,0,4.991,4.071,4.991,7.029v29.431h-6.634V507.05c0-1.38-0.789-1.577-1.576-1.577
			C300.465,505.473,299.611,507.18,299.611,507.18z"/>
		<path fill="#FFFFFF" d="M314.464,502.515v-3.351c0-6.503,1.707-12.48,9.46-12.48c7.225,0,9.458,5.387,9.458,12.022
			c0,9.854-7.49,23.584-11.104,29.759h11.236v7.029h-19.249v-7.029c0,0,11.694-17.474,12.022-29.301
			c0-2.627-0.264-5.912-2.364-5.912c-1.974,0-2.366,2.825-2.366,5.912v3.351H314.464z"/>
		<path fill="#FFFFFF" d="M344.686,527.215c0,1.314,0.065,2.893,1.841,2.893c1.51,0,1.905-0.724,1.905-2.893v-4.99h6.634v3.48
			c0,8.016-2.955,10.314-8.539,10.314c-4.795,0-8.477-2.629-8.477-10.643v-15.7c0-8.016,3.682-10.643,8.477-10.643
			c5.584,0,8.539,2.299,8.539,10.314v2.824h-6.634v-4.337c0-2.166-0.396-2.89-1.905-2.89c-1.775,0-1.841,1.578-1.841,2.89V527.215z"
			/>
		<path fill="#FFFFFF" d="M368.996,512.04c0-0.393,0-0.854,0-1.182c0-0.393,0-2.101,0-2.76c0-1.312,0-3.282-1.838-3.282
			c-2.233,0-1.841,3.282-1.906,5.321h-6.636c0,0,0-1.25,0-1.513c0-5.256,3.877-9.591,8.935-9.591c4.338,0,8.081,3.48,8.081,8.146
			v11.233c0,2.299,0,8.409,0,10.841c0,3.217,0.198,4.662,0.461,6.24c-6.308,0-6.506,0-6.506,0c-0.591-0.656-0.591-2.497-0.591-2.89
			h-0.458c-0.659,1.246-2.63,3.415-5.321,3.415c-1.775,0-5.321-1.314-5.321-8.869C357.896,514.998,368.34,514.209,368.996,512.04z
			 M366.236,529.517c1.513,0,2.76-0.987,2.76-2.169v-9.197c-3.218,1.38-4.598,4.601-4.598,8.016
			C364.398,527.02,364.597,529.517,366.236,529.517z"/>
		<path fill="#FFFFFF" d="M388.384,490.69v8.87h4.532v5.977h-4.532v17.869c0,2.234,0,5.912,2.101,5.912
			c1.116,0,2.432-0.263,2.432-0.263v6.503c0,0-1.445,0.461-3.549,0.461c-7.62,0-7.62-7.883-7.62-12.087v-18.396h-3.35v-5.977h3.35
			v-8.87H388.384z"/>
	</g>
</g>
</svg>
