<?xml version="1.0" encoding="UTF-8" standalone="no"?>
<!-- Created with Inkscape (http://www.inkscape.org/) -->

<svg
   xmlns:dc="http://purl.org/dc/elements/1.1/"
   xmlns:cc="http://creativecommons.org/ns#"
   xmlns:rdf="http://www.w3.org/1999/02/22-rdf-syntax-ns#"
   xmlns:svg="http://www.w3.org/2000/svg"
   xmlns="http://www.w3.org/2000/svg"
   xmlns:xlink="http://www.w3.org/1999/xlink"
   xmlns:sodipodi="http://sodipodi.sourceforge.net/DTD/sodipodi-0.dtd"
   xmlns:inkscape="http://www.inkscape.org/namespaces/inkscape"
   width="51.29071mm"
   height="51.29071mm"
   viewBox="0 0 51.29071 51.29071"
   version="1.1"
   id="svg1898"
   inkscape:version="0.92.3 (2405546, 2018-03-11)"
   sodipodi:docname="level2_sticker_2019.svg">
  <defs
     id="defs1892" />
  <sodipodi:namedview
     id="base"
     pagecolor="#ffffff"
     bordercolor="#666666"
     borderopacity="1.0"
     inkscape:pageopacity="0.0"
     inkscape:pageshadow="2"
     inkscape:zoom="1.7133741"
     inkscape:cx="202.94492"
     inkscape:cy="230.83298"
     inkscape:document-units="mm"
     inkscape:current-layer="layer1"
     showgrid="false"
     inkscape:window-width="1920"
     inkscape:window-height="1031"
     inkscape:window-x="0"
     inkscape:window-y="25"
     inkscape:window-maximized="1"
     fit-margin-top="0"
     fit-margin-left="0"
     fit-margin-right="0"
     fit-margin-bottom="0" />
  <metadata
     id="metadata1895">
    <rdf:RDF>
      <cc:Work
         rdf:about="">
        <dc:format>image/svg+xml</dc:format>
        <dc:type
           rdf:resource="http://purl.org/dc/dcmitype/StillImage" />
        <dc:title></dc:title>
      </cc:Work>
    </rdf:RDF>
  </metadata>
  <g
     inkscape:label="Layer 1"
     inkscape:groupmode="layer"
     id="layer1"
     transform="translate(-46.453741,-143.73628)">
    <circle
       style="opacity:1;fill:#999499;fill-opacity:0;stroke:#9b0000;stroke-width:0.66832161;stroke-miterlimit:4;stroke-dasharray:none;stroke-opacity:0.77647059"
       id="path6599"
       transform="matrix(-0.27107175,0.96255914,0.96255914,0.27107175,0,0)"
       cy="115.31422"
       cx="143.4958"
       r="22.950609" />
    <path
       d="m 97.744453,169.38181 c 0,14.16332 -11.481858,25.64518 -25.645179,25.64518 -14.163674,0 -25.645533,-11.48186 -25.645533,-25.64518 0,-14.16368 11.481859,-25.64553 25.645533,-25.64553 14.163321,0 25.645179,11.48185 25.645179,25.64553"
       style="fill:#424546;fill-opacity:1;fill-rule:nonzero;stroke:none;stroke-width:0.35277775"
       id="path22"
       inkscape:connector-curvature="0" />
    <path
       inkscape:connector-curvature="0"
       id="path492"
       style="fill:#ffffff;fill-opacity:1;fill-rule:nonzero;stroke:none;stroke-width:0.35277775"
       d="m 62.107478,155.02245 h 3.681236 v 16.39781 h -3.681236 z" />
    <g
       transform="matrix(0.35277777,0,0,-0.35277777,63.895039,151.20444)"
       id="g494">
      <path
         inkscape:connector-curvature="0"
         id="path496"
         style="fill:#ffffff;fill-opacity:1;fill-rule:nonzero;stroke:none"
         d="m 0,0 7.379,-7.378 -20.793,-20.793 -7.379,7.379 z" />
    </g>
    <g
       transform="matrix(0.35277777,0,0,-0.35277777,71.247563,158.53975)"
       id="g498">
      <path
         inkscape:connector-curvature="0"
         id="path500"
         style="fill:#ffffff;fill-opacity:1;fill-rule:nonzero;stroke:none"
         d="m 0,0 -7.379,-7.378 -20.793,20.792 7.379,7.379 z" />
    </g>
    <path
       inkscape:connector-curvature="0"
       id="path502"
       style="fill:#ffffff;fill-opacity:1;fill-rule:nonzero;stroke:none;stroke-width:0.35277775"
       d="m 78.485538,155.02245 h 3.680883 v 16.39781 h -3.680883 z" />
    <g
       transform="matrix(0.35277777,0,0,-0.35277777,80.272992,151.20444)"
       id="g504">
      <path
         inkscape:connector-curvature="0"
         id="path506"
         style="fill:#ffffff;fill-opacity:1;fill-rule:nonzero;stroke:none"
         d="m 0,0 7.379,-7.378 -20.793,-20.793 -7.379,7.379 z" />
    </g>
    <g
       transform="matrix(0.35277777,0,0,-0.35277777,87.625516,158.53975)"
       id="g508">
      <path
         inkscape:connector-curvature="0"
         id="path510"
         style="fill:#ffffff;fill-opacity:1;fill-rule:nonzero;stroke:none"
         d="m 0,0 -7.379,-7.378 -20.793,20.792 7.379,7.379 z" />
    </g>
    <path
       inkscape:connector-curvature="0"
       id="path512"
       style="fill:#ffffff;fill-opacity:1;fill-rule:nonzero;stroke:none;stroke-width:0.35277775"
       d="M 86.843551,176.62021 H 57.673062 v -2.95593 h 29.170489 z" />
    <g
       transform="matrix(0.35277777,0,0,-0.35277777,94.300742,169.21713)"
       id="g514">
      <path
         inkscape:connector-curvature="0"
         id="path516"
         style="fill:none;stroke:#f1f1f2;stroke-width:1.46000004;stroke-linecap:round;stroke-linejoin:miter;stroke-miterlimit:10;stroke-dasharray:0, 3.889;stroke-dashoffset:0;stroke-opacity:1"
         d="m 0,0 c 0,-34.795 -28.207,-63 -63,-63 -34.793,0 -63,28.205 -63,63 0,34.795 28.207,63 63,63 C -28.207,63 0,34.795 0,0 Z" />
    </g>
    <g
       transform="matrix(0.35277777,0,0,-0.35277777,63.262155,178.83999)"
       id="g518">
      <path
         inkscape:connector-curvature="0"
         id="path520"
         style="fill:#f1f1f2;fill-opacity:1;fill-rule:nonzero;stroke:none"
         d="m 0,0 h 3.239 v -19.049 h 4.29 v -3 H 0 Z" />
    </g>
    <g
       transform="matrix(0.35277777,0,0,-0.35277777,67.294299,183.08362)"
       id="g522">
      <path
         inkscape:connector-curvature="0"
         id="path524"
         style="fill:#f1f1f2;fill-opacity:1;fill-rule:nonzero;stroke:none"
         d="m 0,0 h 2.189 v 2.31 c 0,0 0.06,1.68 -1.08,1.68 C 0,3.99 0,2.31 0,2.31 Z m 5.01,-4.14 v -1.889 c 0,0 0,-4.231 -3.931,-4.231 -3.899,0 -3.899,4.321 -3.899,4.321 V 2.31 c 0,0 0.03,4.32 3.929,4.32 C 5.039,6.63 5.01,2.4 5.01,2.4 V -2.37 H 0 v -3.569 c 0,0 0,-1.651 1.109,-1.651 1.14,0 1.08,1.651 1.08,1.651 v 1.799 z" />
    </g>
    <g
       transform="matrix(0.35277777,0,0,-0.35277777,70.342511,186.61832)"
       id="g526">
      <path
         inkscape:connector-curvature="0"
         id="path528"
         style="fill:#f1f1f2;fill-opacity:1;fill-rule:nonzero;stroke:none"
         d="M 0,0 -2.67,16.409 H 0.27 L 1.26,6.899 1.38,5.85 h 0.24 l 0.119,1.049 0.99,9.51 H 5.67 L 3,0 Z" />
    </g>
    <g
       transform="matrix(0.35277777,0,0,-0.35277777,73.729036,183.08362)"
       id="g530">
      <path
         inkscape:connector-curvature="0"
         id="path532"
         style="fill:#f1f1f2;fill-opacity:1;fill-rule:nonzero;stroke:none"
         d="m 0,0 h 2.189 v 2.31 c 0,0 0.06,1.68 -1.08,1.68 C 0,3.99 0,2.31 0,2.31 Z m 5.01,-4.14 v -1.889 c 0,0 0,-4.231 -3.931,-4.231 -3.899,0 -3.899,4.321 -3.899,4.321 V 2.31 c 0,0 0.03,4.32 3.929,4.32 C 5.039,6.63 5.01,2.4 5.01,2.4 V -2.37 H 0 v -3.569 c 0,0 0,-1.651 1.109,-1.651 1.14,0 1.08,1.651 1.08,1.651 v 1.799 z" />
    </g>
    <path
       inkscape:connector-curvature="0"
       id="path534"
       style="fill:#f1f1f2;fill-opacity:1;fill-rule:nonzero;stroke:none;stroke-width:0.35277775"
       d="m 76.205536,178.83989 h 1.068565 v 7.77839 h -1.068565 z" />
    <g
       transform="matrix(0.35277777,0,0,-0.35277777,78.015426,181.30562)"
       id="g536">
      <path
         inkscape:connector-curvature="0"
         id="path538"
         style="fill:#f1f1f2;fill-opacity:1;fill-rule:nonzero;stroke:none"
         d="m 0,0 v 1.529 c 0,2.971 0.779,5.7 4.319,5.7 3.3,0 4.321,-2.459 4.321,-5.49 C 8.64,-2.76 5.22,-9.03 3.569,-11.85 h 5.13 v -3.21 h -8.79 v 3.21 c 0,0 5.34,7.98 5.49,13.379 0,1.2 -0.12,2.7 -1.08,2.7 -0.9,0 -1.08,-1.29 -1.08,-2.7 L 3.239,0 Z" />
    </g>
    <text
       xml:space="preserve"
       style="font-style:normal;font-weight:normal;font-size:10.58333302px;line-height:125%;font-family:sans-serif;letter-spacing:0px;word-spacing:0px;fill:#000000;fill-opacity:1;stroke:none;stroke-width:0.26458332px;stroke-linecap:butt;stroke-linejoin:miter;stroke-opacity:1"
       x="71.373726"
       y="191.29723"
       id="text4334"><tspan
         sodipodi:role="line"
         id="tspan4332"
         x="71.373726"
         y="200.661"
         style="stroke-width:0.26458332px" /></text>
    <path
       style="opacity:1;fill:none;fill-opacity:0;stroke:#424546;stroke-width:2.00169849;stroke-linecap:round;stroke-linejoin:bevel;stroke-miterlimit:4;stroke-dasharray:none;stroke-dashoffset:0;stroke-opacity:1"
       id="path1546"
       transform="rotate(95.046485)"
       sodipodi:type="arc"
       sodipodi:cx="162.34619"
       sodipodi:cy="-86.749115"
       sodipodi:rx="21.656145"
       sodipodi:ry="21.656145"
       sodipodi:start="5.9416079"
       sodipodi:end="0.20507055"
       d="m 182.75121,-94.003356 a 21.656145,21.656145 0 0 1 0.79736,11.664217"
       sodipodi:open="true" />
    <text
       xml:space="preserve"
       style="font-style:normal;font-weight:normal;font-size:10.58333302px;line-height:125%;font-family:sans-serif;letter-spacing:0px;word-spacing:0px;fill:#000000;fill-opacity:1;stroke:none;stroke-width:0.26458332px;stroke-linecap:butt;stroke-linejoin:miter;stroke-opacity:1"
       id="text1577"
       y="171.72902"
       x="56.671402"><tspan
         sodipodi:role="line"
         id="tspan1575"
         x="56.671402"
         y="181.09279"
         style="stroke-width:0.26458332px" /></text>
    <text
       xml:space="preserve"
       style="font-style:normal;font-weight:normal;font-size:10.58333302px;line-height:125%;font-family:sans-serif;letter-spacing:0px;word-spacing:0px;fill:#000000;fill-opacity:1;stroke:none;stroke-width:0.26458332px;stroke-linecap:butt;stroke-linejoin:miter;stroke-opacity:1"
       id="text2470"
       x="12.769369"
       y="0"><textPath
         xlink:href="#path6599"
         id="textPath2478"
         style="font-style:normal;font-variant:normal;font-weight:normal;font-stretch:normal;font-size:4.23333311px;font-family:'League Gothic';-inkscape-font-specification:'League Gothic';text-align:start;text-anchor:start;fill:#ffffff;fill-opacity:1;stroke-width:0.26458332px">by syn<tspan
   style="font-size:3.52777767px;baseline-shift:sub"
   id="tspan2633">2</tspan>cat</textPath></text>
  </g>
</svg>
